<?xml version="1.0" encoding="utf-8"?>
<!-- Generator: Adobe Illustrator 19.1.0, SVG Export Plug-In . SVG Version: 6.00 Build 0)  -->
<svg version="1.1" id="Layer_1" xmlns="http://www.w3.org/2000/svg" xmlns:xlink="http://www.w3.org/1999/xlink" x="0px" y="0px"
	 viewBox="-1313 883 36 36" style="enable-background:new -1313 883 36 36;" xml:space="preserve">
<style type="text/css">
	.st0{fill:#7FFFD4;}
</style>
<path class="st0" d="M-1295,884.8c-8.9,0-16.2,7.3-16.2,16.2s7.3,16.2,16.2,16.2s16.2-7.3,16.2-16.2S-1286,884.8-1295,884.8z
	 M-1303.7,894.6h17.4c1,0,1.8,0.7,1.9,1.6l-10.6,4.5l-10.5-4.5C-1305.5,895.3-1304.7,894.6-1303.7,894.6L-1303.7,894.6z
	 M-1284.5,906.6c0,1-0.8,1.7-1.9,1.7h-17.4c-1,0-1.9-0.8-1.9-1.7V897l10.6,4.5l0,0l10.6-4.5C-1284.5,897-1284.5,906.6-1284.5,906.6z
	"/>
</svg>
