<?xml version="1.0" encoding="utf-8"?>
<!-- Generator: Adobe Illustrator 19.1.0, SVG Export Plug-In . SVG Version: 6.00 Build 0)  -->
<svg version="1.1" id="Layer_1" xmlns="http://www.w3.org/2000/svg" xmlns:xlink="http://www.w3.org/1999/xlink" x="0px" y="0px"
	 viewBox="-1313 883 36 36" style="enable-background:new -1313 883 36 36;" xml:space="preserve">
<style type="text/css">
	.st0{fill:#7FFFD4;}
</style>
<path class="st0" d="M-1295,884.8c-8.9,0-16.2,7.3-16.2,16.2s7.3,16.2,16.2,16.2s16.2-7.3,16.2-16.2S-1286,884.8-1295,884.8z
	 M-1299.7,904.6c-2,0-3.6-1.6-3.6-3.6s1.6-3.6,3.6-3.6s3.6,1.6,3.6,3.6C-1296,903-1297.7,904.6-1299.7,904.6z M-1290.3,904.6
	c-2,0-3.6-1.6-3.6-3.6s1.6-3.6,3.6-3.6s3.6,1.6,3.6,3.6S-1288.3,904.6-1290.3,904.6z"/>
</svg>
