<?xml version="1.0" encoding="utf-8"?>
<!-- Generator: Adobe Illustrator 19.1.0, SVG Export Plug-In . SVG Version: 6.00 Build 0)  -->
<svg version="1.1" id="Layer_1" xmlns="http://www.w3.org/2000/svg" xmlns:xlink="http://www.w3.org/1999/xlink" x="0px" y="0px"
	 viewBox="-1316 888.2 30.4 25.8" style="enable-background:new -1316 888.2 30.4 25.8;" xml:space="preserve">
<style type="text/css">
	.st0{fill:#8BE8C5;}
	.st1{fill:#99FFDA;}
</style>
<g>
	<path class="st0" d="M-1288.4,892.7h-24.2c-0.2,0-0.4,0.2-0.4,0.4v14.9c0,0.2,0.2,0.4,0.4,0.4h24.2c0.2,0,0.4-0.2,0.4-0.4V893
		C-1288.1,892.8-1288.2,892.7-1288.4,892.7z M-1300.6,893c0.1,0,0.2,0.1,0.2,0.2c0,0.1-0.1,0.2-0.2,0.2c-0.1,0-0.2-0.1-0.2-0.2
		C-1300.8,893.1-1300.7,893-1300.6,893z M-1289.5,907.2h-22.1v-13.2h22.1V907.2z"/>
	<path class="st1" d="M-1286.7,908h-11.8v0.1c0,0.1-0.1,0.2-0.2,0.2h-3.7c-0.1,0-0.2-0.1-0.2-0.2V908h-12.3c-0.4,0-0.7,0-0.7,0.3
		v0.6c0,0.4,0.3,0.7,0.7,0.7h28.1c0.4,0,0.7-0.3,0.7-0.7l0-0.4C-1286.1,908-1286.1,908-1286.7,908z"/>
</g>
</svg>
